<svg width="12" height="13" viewBox="0 0 12 13" fill="none" xmlns="http://www.w3.org/2000/svg">
<path d="M5.98322 2.2585e-06C5.88154 -1.79473e-05 5.77125 -3.98643e-05 5.67537 0.00650173C5.56746 0.0138647 5.42421 0.0319624 5.27165 0.0951551C4.96537 0.222023 4.72202 0.465365 4.59516 0.77165C4.53196 0.924211 4.51386 1.06746 4.5065 1.17537C4.49996 1.27125 4.49998 1.38154 4.5 1.48322V11.5168C4.49998 11.6185 4.49996 11.7288 4.5065 11.8246C4.51386 11.9326 4.53196 12.0758 4.59516 12.2284C4.72202 12.5346 4.96537 12.778 5.27165 12.9049C5.42421 12.968 5.56746 12.9861 5.67537 12.9935C5.77123 13 5.88148 13 5.98314 13H6.01679C6.11845 13 6.22878 13 6.32464 12.9935C6.43255 12.9861 6.5758 12.968 6.72836 12.9049C7.03464 12.778 7.27799 12.5346 7.40485 12.2284C7.46805 12.0758 7.48614 11.9326 7.49351 11.8246C7.50005 11.7288 7.50003 11.6185 7.50001 11.5168V1.48322C7.50003 1.38155 7.50005 1.27123 7.49351 1.17537C7.48614 1.06746 7.46805 0.924211 7.40485 0.77165C7.27799 0.465365 7.03464 0.222023 6.72836 0.0951551C6.5758 0.0319624 6.43255 0.0138647 6.32464 0.00650173C6.22876 -3.98648e-05 6.11847 -1.7948e-05 6.01679 2.25778e-06L5.98322 2.2585e-06Z" fill="#4A4A4A"/>
<path d="M1.48322 5C1.38154 4.99998 1.27125 4.99996 1.17537 5.0065C1.06746 5.01386 0.924211 5.03196 0.77165 5.09516C0.465365 5.22202 0.222023 5.46537 0.0951551 5.77165C0.0319624 5.92421 0.0138647 6.06746 0.00650173 6.17537C-3.98643e-05 6.27125 -1.7948e-05 6.38154 2.25778e-06 6.48322L2.2585e-06 11.5168C-1.79475e-05 11.6185 -3.99416e-05 11.7288 0.00650173 11.8246C0.0138647 11.9326 0.0319624 12.0758 0.0951551 12.2284C0.222023 12.5346 0.465365 12.778 0.77165 12.9049C0.924211 12.968 1.06746 12.9861 1.17537 12.9935C1.27125 13 1.38154 13 1.48322 13H1.51679C1.61847 13 1.72876 13 1.82464 12.9935C1.93255 12.9861 2.0758 12.968 2.22836 12.9049C2.53464 12.778 2.77799 12.5346 2.90485 12.2284C2.96805 12.0758 2.98614 11.9326 2.99351 11.8246C3.00005 11.7288 3.00003 11.6185 3.00001 11.5168V6.48322C3.00003 6.38154 3.00005 6.27124 2.99351 6.17537C2.98614 6.06746 2.96805 5.92421 2.90485 5.77165C2.77799 5.46537 2.53464 5.22202 2.22836 5.09516C2.0758 5.03196 1.93255 5.01386 1.82464 5.0065C1.72876 4.99996 1.61847 4.99998 1.51679 5H1.48322Z" fill="#4A4A4A"/>
<path d="M10.4832 2C10.3815 1.99998 10.2713 1.99996 10.1754 2.0065C10.0675 2.01386 9.92421 2.03196 9.77165 2.09516C9.46537 2.22202 9.22202 2.46537 9.09515 2.77165C9.03196 2.92421 9.01386 3.06746 9.0065 3.17537C8.99996 3.27125 8.99998 3.38153 9 3.48321V11.5168C8.99998 11.6185 8.99996 11.7288 9.0065 11.8246C9.01386 11.9326 9.03196 12.0758 9.09515 12.2284C9.22202 12.5346 9.46537 12.778 9.77165 12.9049C9.92421 12.968 10.0675 12.9861 10.1754 12.9935C10.2712 13 10.3815 13 10.4832 13H10.5168C10.6185 13 10.7288 13 10.8246 12.9935C10.9326 12.9861 11.0758 12.968 11.2284 12.9049C11.5346 12.778 11.778 12.5346 11.9049 12.2284C11.968 12.0758 11.9861 11.9326 11.9935 11.8246C12 11.7288 12 11.6185 12 11.5168V3.48322C12 3.38155 12 3.27123 11.9935 3.17537C11.9861 3.06746 11.968 2.92421 11.9049 2.77165C11.778 2.46537 11.5346 2.22202 11.2284 2.09516C11.0758 2.03196 10.9326 2.01386 10.8246 2.0065C10.7288 1.99996 10.6185 1.99998 10.5168 2H10.4832Z" fill="#4A4A4A"/>
</svg>
