<svg width="13" height="13" viewBox="0 0 13 13" fill="none" xmlns="http://www.w3.org/2000/svg">
<path d="M8.5 4.5C9.05229 4.5 9.5 4.05229 9.5 3.5C9.5 2.94772 9.05229 2.5 8.5 2.5C7.94772 2.5 7.5 2.94772 7.5 3.5C7.5 4.05229 7.94772 4.5 8.5 4.5Z" fill="#4A4A4A"/>
<path fill-rule="evenodd" clip-rule="evenodd" d="M3.91957 3.72216e-07H9.08044C9.61458 -9.76079e-06 10.0604 -1.82185e-05 10.4247 0.0297405C10.8046 0.0607783 11.1612 0.127889 11.4985 0.299733C12.0159 0.563385 12.4366 0.984082 12.7003 1.50153C12.8721 1.83879 12.9392 2.19545 12.9703 2.57533C13 2.93955 13 3.38538 13 3.91951V5.83045C13 6.36458 13 6.81045 12.9703 7.17467C12.9392 7.55456 12.8721 7.91121 12.7003 8.24848C12.4366 8.76592 12.0159 9.18662 11.4985 9.45027C11.1612 9.62211 10.8046 9.68922 10.4247 9.72026C10.3338 9.72769 10.2379 9.73326 10.1367 9.73744C10.0918 9.74577 10.046 9.75 10 9.75H4.5L4.49761 9.75H3.91955C3.38542 9.75001 2.93955 9.75002 2.57533 9.72026C2.19545 9.68922 1.83879 9.62211 1.50153 9.45027C1.07632 9.23361 0.716437 8.91091 0.455348 8.51561C0.372058 8.42764 0.311978 8.32151 0.279069 8.20679C0.122433 7.88185 0.0595025 7.53894 0.0297405 7.17467C-1.82185e-05 6.81044 -9.76079e-06 6.3646 3.72216e-07 5.83046V3.91957C-9.76079e-06 3.38542 -1.82185e-05 2.93956 0.0297405 2.57533C0.0607783 2.19545 0.127889 1.83879 0.299733 1.50153C0.563385 0.984082 0.984082 0.563385 1.50153 0.299733C1.83879 0.127889 2.19545 0.0607783 2.57533 0.0297405C2.93956 -1.82185e-05 3.38542 -9.76079e-06 3.91957 3.72216e-07ZM11.5 5.8C11.5 5.99916 11.4999 6.17553 11.4988 6.33333L11.3645 6.14147C10.7032 5.1967 9.32476 5.13876 8.58647 6.0247L7.5 7.32847L5.08854 4.43472C4.39232 3.59925 3.11071 3.59443 2.40823 4.42464L1.5 5.498V3.95C1.5 3.37757 1.50058 2.99336 1.52476 2.69748C1.54822 2.41036 1.5901 2.27307 1.63624 2.18251C1.75608 1.94731 1.94731 1.75608 2.18251 1.63624C2.27307 1.5901 2.41036 1.54822 2.69748 1.52476C2.99336 1.50058 3.37757 1.5 3.95 1.5H9.05C9.62243 1.5 10.0066 1.50058 10.3025 1.52476C10.5896 1.54822 10.7269 1.5901 10.8175 1.63624C11.0527 1.75608 11.2439 1.94731 11.3638 2.18251C11.4099 2.27307 11.4518 2.41036 11.4752 2.69748C11.4994 2.99336 11.5 3.37757 11.5 3.95V5.8Z" fill="#4A4A4A"/>
<path d="M0.500001 12.25C0.500001 11.8358 0.835788 11.5 1.25 11.5H6.75C7.16422 11.5 7.5 11.8358 7.5 12.25C7.5 12.6642 7.16422 13 6.75 13H1.25C0.835788 13 0.500001 12.6642 0.500001 12.25Z" fill="#4A4A4A"/>
<path d="M9.25 11.5C8.83579 11.5 8.5 11.8358 8.5 12.25C8.5 12.6642 8.83579 13 9.25 13H11.75C12.1642 13 12.5 12.6642 12.5 12.25C12.5 11.8358 12.1642 11.5 11.75 11.5H9.25Z" fill="#4A4A4A"/>
</svg>
