<svg width="16" height="16" viewBox="0 0 16 16" fill="none" xmlns="http://www.w3.org/2000/svg">
<path fill-rule="evenodd" clip-rule="evenodd" d="M9.17984 0.979384C8.58035 -0.326461 6.72478 -0.326461 6.12529 0.979383C5.75854 1.77827 4.83809 2.15953 4.01386 1.85397C2.66659 1.3545 1.3545 2.66659 1.85397 4.01386C2.15953 4.83809 1.77827 5.75854 0.979383 6.12529C-0.326461 6.72478 -0.326461 8.58035 0.979384 9.17984C1.77827 9.54659 2.15953 10.467 1.85397 11.2913C1.3545 12.6385 2.66659 13.9506 4.01386 13.4512C4.83809 13.1456 5.75854 13.5269 6.12529 14.3257C6.72478 15.6316 8.58035 15.6316 9.17984 14.3257C9.54659 13.5269 10.467 13.1456 11.2913 13.4512C12.6385 13.9506 13.9506 12.6385 13.4512 11.2913C13.1456 10.467 13.5269 9.54659 14.3257 9.17984C15.6316 8.58035 15.6316 6.72478 14.3257 6.12529C13.5269 5.75854 13.1456 4.83809 13.4512 4.01386C13.9506 2.66659 12.6385 1.3545 11.2913 1.85397C10.467 2.15953 9.54659 1.77827 9.17984 0.979384ZM6.65257 5.90257C6.65257 6.45485 6.20485 6.90257 5.65257 6.90257C5.10028 6.90257 4.65257 6.45485 4.65257 5.90257C4.65257 5.35028 5.10028 4.90257 5.65257 4.90257C6.20485 4.90257 6.65257 5.35028 6.65257 5.90257ZM10.1829 6.4329L6.1829 10.4329C5.89 10.7258 5.41513 10.7258 5.12224 10.4329C4.82934 10.14 4.82934 9.66513 5.12224 9.37224L9.12224 5.37224C9.41513 5.07934 9.89 5.07934 10.1829 5.37224C10.4758 5.66513 10.4758 6.14 10.1829 6.4329ZM10.6526 9.90257C10.6526 10.4549 10.2049 10.9026 9.65257 10.9026C9.10028 10.9026 8.65257 10.4549 8.65257 9.90257C8.65257 9.35028 9.10028 8.90257 9.65257 8.90257C10.2049 8.90257 10.6526 9.35028 10.6526 9.90257Z" fill="#4A4A4A"/>
</svg>
