<svg width="16" height="20" viewBox="0 0 16 20" fill="none" xmlns="http://www.w3.org/2000/svg">
<path d="M10.5078 5.85938C9.75395 5.85938 9.14062 5.24605 9.14062 4.49219V0H2.14844C0.963789 0 0 0.963789 0 2.14844V17.8516C0 19.0362 0.963789 20 2.14844 20H13.0859C14.2706 20 15.2344 19.0362 15.2344 17.8516V5.85938H10.5078ZM3.20312 14.0625H6.04375C6.36734 14.0625 6.62969 14.3248 6.62969 14.6484C6.62969 14.972 6.36734 15.2344 6.04375 15.2344H3.20312C2.87953 15.2344 2.61719 14.972 2.61719 14.6484C2.61719 14.3248 2.87953 14.0625 3.20312 14.0625ZM2.61719 11.5234C2.61719 11.1998 2.87953 10.9375 3.20312 10.9375H11.7969C12.1205 10.9375 12.3828 11.1998 12.3828 11.5234C12.3828 11.847 12.1205 12.1094 11.7969 12.1094H3.20312C2.87953 12.1094 2.61719 11.847 2.61719 11.5234ZM11.7969 7.8125C12.1205 7.8125 12.3828 8.07484 12.3828 8.39844C12.3828 8.72203 12.1205 8.98438 11.7969 8.98438H3.20312C2.87953 8.98438 2.61719 8.72203 2.61719 8.39844C2.61719 8.07484 2.87953 7.8125 3.20312 7.8125H11.7969Z" fill="white"/>
</svg>
