<svg width="13" height="13" viewBox="0 0 13 13" fill="none" xmlns="http://www.w3.org/2000/svg">
<path fill-rule="evenodd" clip-rule="evenodd" d="M7.03932 0.122332C6.69827 -0.0407774 6.30173 -0.0407774 5.96068 0.122332L0.71068 2.6332C0.276416 2.84089 0 3.2795 0 3.76087V4.94576C0 5.63612 0.559644 6.19576 1.25 6.19576V9.19576H1C0.447715 9.19576 0 9.64347 0 10.1958V11.6958C0 12.248 0.447715 12.6958 1 12.6958H12C12.5523 12.6958 13 12.248 13 11.6958V10.1958C13 9.64347 12.5523 9.19576 12 9.19576H11.75V6.19576C12.4404 6.19576 13 5.63612 13 4.94576V3.76087C13 3.2795 12.7236 2.84089 12.2893 2.6332L7.03932 0.122332ZM8.75 6.19576H10.25V9.19576H8.75V6.19576ZM5.75 6.19576H7.25V9.19576H5.75V6.19576ZM2.75 6.19576H4.25V9.19576H2.75V6.19576Z" fill="#4A4A4A"/>
</svg>
