<svg width="12" height="13" viewBox="0 0 12 13" fill="none" xmlns="http://www.w3.org/2000/svg">
<path d="M10 12.6716H8C7.44772 12.6716 7 12.2239 7 11.6716V9.17157C7 8.89543 6.77614 8.67157 6.5 8.67157H5.5C5.22386 8.67157 5 8.89543 5 9.17157V11.6716C5 12.2239 4.55228 12.6716 4 12.6716H2C0.895431 12.6716 0 11.7761 0 10.6716V6.41421C0 5.61856 0.316071 4.8555 0.87868 4.29289L4.58579 0.585786C5.36684 -0.195263 6.63317 -0.195262 7.41421 0.585787L11.1213 4.29289C11.6839 4.8555 12 5.61856 12 6.41421V10.6716C12 11.7761 11.1046 12.6716 10 12.6716Z" fill="#4A4A4A"/>
</svg>
