<svg width="15" height="15" viewBox="0 0 15 15" fill="none" xmlns="http://www.w3.org/2000/svg">
<path d="M2 7C2 4.23858 4.23858 2 7 2C9.76142 2 12 4.23858 12 7C12 7.55228 12.4477 8 13 8C13.5523 8 14 7.55228 14 7C14 3.13401 10.866 0 7 0C3.13401 0 0 3.13401 0 7C0 10.866 3.13401 14 7 14C7.55228 14 8 13.5523 8 13C8 12.4477 7.55228 12 7 12C4.23858 12 2 9.76142 2 7Z" fill="#4A4A4A"/>
<path d="M8.28975 6.84027C8.36661 7.38718 8.87228 7.76822 9.41919 7.69136C9.9661 7.6145 10.3471 7.10883 10.2703 6.56192C10.1869 5.96838 9.94094 5.40947 9.55969 4.94698C9.17844 4.48449 8.67673 4.13643 8.11001 3.9413C7.54329 3.74616 6.93365 3.71154 6.34848 3.84127C5.76332 3.971 5.22543 4.26002 4.79427 4.67638C4.36312 5.09274 4.0555 5.62022 3.90543 6.2005C3.75536 6.78078 3.76868 7.39126 3.94392 7.96444C4.11916 8.53762 4.44949 9.05118 4.8984 9.44834C5.3473 9.84549 5.89729 10.1108 6.48756 10.2149C7.03145 10.3108 7.55011 9.94759 7.64601 9.4037C7.74192 8.8598 7.37875 8.34114 6.83485 8.24524C6.60783 8.20521 6.39629 8.10318 6.22364 7.95043C6.05098 7.79767 5.92393 7.60015 5.85653 7.3797C5.78913 7.15924 5.78401 6.92444 5.84173 6.70126C5.89945 6.47807 6.01776 6.2752 6.18359 6.11506C6.34942 5.95492 6.5563 5.84376 6.78136 5.79386C7.00643 5.74397 7.2409 5.75728 7.45887 5.83233C7.67684 5.90739 7.86981 6.04125 8.01644 6.21913C8.16308 6.39702 8.25766 6.61198 8.28975 6.84027Z" fill="#4A4A4A"/>
<path d="M8.61095 7.973C8.42938 7.90891 8.22714 7.95479 8.09099 8.09094C7.95484 8.22709 7.90896 8.42933 7.97305 8.6109L10.0944 14.6213C10.1557 14.7951 10.3076 14.921 10.4898 14.9491C10.6719 14.9771 10.8547 14.9027 10.9654 14.7555L12.1371 13.1978L13.1746 14.2352C13.3699 14.4305 13.6865 14.4305 13.8817 14.2352L14.2353 13.8817C14.4305 13.6864 14.4305 13.3698 14.2353 13.1746L13.1978 12.1371L14.7555 10.9654C14.9028 10.8546 14.9772 10.6718 14.9491 10.4897C14.9211 10.3076 14.7951 10.1556 14.6214 10.0943L8.61095 7.973Z" fill="#4A4A4A"/>
</svg>
