<svg width="13" height="13" viewBox="0 0 13 13" fill="none" xmlns="http://www.w3.org/2000/svg">
<path fill-rule="evenodd" clip-rule="evenodd" d="M0.755223 2.34699C0.954988 0.998578 2.1124 0 3.47553 0H9.52447C10.8876 0 12.045 0.998579 12.2448 2.34699L12.9055 6.80708C12.9684 7.23161 13 7.6602 13 8.08938V9.75C13 11.5449 11.5449 13 9.75 13H3.25C1.45507 13 0 11.5449 0 9.75V8.08938C0 7.6602 0.0315752 7.23161 0.0944698 6.80708L0.755223 2.34699ZM3.47553 1.5C2.85593 1.5 2.32983 1.9539 2.23903 2.56681L1.65633 6.5H4.13962C4.67766 6.5 5.15533 6.84429 5.32547 7.35472L5.48359 7.82906C5.51762 7.93114 5.61315 8 5.72076 8H7.27924C7.38685 8 7.48238 7.93114 7.51641 7.82906L7.67453 7.35472C7.84467 6.84429 8.32234 6.5 8.86038 6.5H11.3437L10.761 2.56681C10.6702 1.9539 10.1441 1.5 9.52447 1.5H3.47553Z" fill="#4A4A4A"/>
</svg>
