<svg width="16" height="16" viewBox="0 0 16 16" fill="none" xmlns="http://www.w3.org/2000/svg">
<path d="M8.89845 5.40235C9.01135 5.4383 9.05946 5.55929 9.02182 5.67163L8.67438 6.70843C8.62631 6.85186 8.46295 6.91898 8.32 6.86951C8.08884 6.78952 7.84593 6.7465 7.60021 6.74259C6.80201 6.74259 6.76689 7.24172 6.76689 7.36811C6.76689 7.63833 7.04487 7.84302 7.38141 8.09084C7.89763 8.47096 8.55166 8.95256 8.55166 9.92777C8.55166 11.1916 7.75346 12.0075 6.6727 12.0075C6.30911 12.0181 5.94733 11.9524 5.61056 11.8146C5.31896 11.6954 5.05168 11.5243 4.82141 11.3102C4.75523 11.2486 4.73329 11.1541 4.75942 11.0675L4.9524 10.4285C5.00468 10.2554 5.22131 10.1893 5.37254 10.2885C5.62332 10.4529 5.98819 10.6461 6.3183 10.6461C6.38695 10.6491 6.45549 10.6381 6.51973 10.6137C6.58397 10.5892 6.64255 10.5519 6.69188 10.504C6.7412 10.456 6.78024 10.3985 6.80659 10.3349C6.83294 10.2713 6.84605 10.203 6.84511 10.1341C6.84511 9.74193 6.56353 9.51404 6.24736 9.25816C5.84263 8.9306 5.38122 8.55717 5.38122 7.73446C5.38122 6.49782 6.26881 5.30118 8.05678 5.30118C8.45095 5.28929 8.73092 5.349 8.89845 5.40235Z" fill="#4A4A4A"/>
<path d="M7.16534 3.23725C7.54529 3.16206 7.73526 3.52842 7.66182 3.85637C7.58839 4.18433 7.33297 4.47229 7.0073 4.49629C6.68164 4.52028 6.52838 4.24032 6.55392 3.95716C6.57132 3.78931 6.63905 3.63067 6.7482 3.50216C6.85734 3.37365 7.00278 3.28129 7.16534 3.23725Z" fill="#4A4A4A"/>
<path fill-rule="evenodd" clip-rule="evenodd" d="M0.435974 2.18404C0 3.03969 0 4.15979 0 6.4V9.6C0 11.8402 0 12.9603 0.435974 13.816C0.819467 14.5686 1.43139 15.1805 2.18404 15.564C3.03969 16 4.15979 16 6.4 16H9.6C11.8402 16 12.9603 16 13.816 15.564C14.5686 15.1805 15.1805 14.5686 15.564 13.816C16 12.9603 16 11.8402 16 9.6V6.4C16 4.15979 16 3.03969 15.564 2.18404C15.1805 1.43139 14.5686 0.819467 13.816 0.435974C12.9603 0 11.8402 0 9.6 0H6.4C4.15979 0 3.03969 0 2.18404 0.435974C1.43139 0.819467 0.819467 1.43139 0.435974 2.18404ZM10.8913 3.84356L9.83285 2.42135C9.74184 2.28679 9.61822 2.17759 9.47358 2.104C9.32894 2.0304 9.16802 1.99483 9.00591 2.00061C8.85286 2.01167 8.70141 2.03902 8.55413 2.0822L6.52192 2.58453L5.72372 2.7797C5.50904 2.83075 5.32281 2.96397 5.20489 3.15086L4.10976 4.75064C3.99875 4.90099 3.92588 5.07613 3.89744 5.26098C3.87783 5.39552 3.86107 5.53149 3.84447 5.66619L3.84157 5.68972C3.66596 7.06981 3.48823 8.45309 3.30837 9.83957L3.06891 11.6921C3.06356 11.7337 3.05564 11.7816 3.04707 11.8334C2.9943 12.1524 2.9165 12.6229 3.25569 12.7192C3.47736 12.7825 3.71196 12.8199 3.94456 12.857C4.05867 12.8752 4.17239 12.8933 4.28377 12.9144L9.92544 13.9862C10.2224 14.0438 10.4985 13.9222 10.564 13.5943C10.5763 13.5106 10.5821 13.4261 10.5816 13.3415C10.6039 12.9064 10.6247 12.4728 10.6454 12.0377L10.8625 7.59027C10.9136 6.51628 10.9668 5.44282 11.0222 4.36989C11.0492 4.18403 11.0022 3.99497 10.8913 3.84356ZM11.5563 12.8794C11.5694 12.6138 11.5821 12.3487 11.5947 12.0836L11.8119 7.63542C11.8623 6.57435 11.9149 5.5138 11.9695 4.45377C11.9916 4.2583 11.9787 4.06206 11.9331 3.8738C12.0128 3.96803 12.0644 4.08348 12.0812 4.20691L13.2115 12.5258C13.2263 12.5871 13.2262 12.651 13.211 12.7122C13.1959 12.7734 13.1662 12.83 13.1244 12.8771C13.0827 12.9243 13.0302 12.9606 12.9714 12.983C12.9126 13.0054 12.8493 13.0132 12.7868 13.0058L11.5563 12.8794Z" fill="#4A4A4A"/>
</svg>
