<svg width="12" height="12" viewBox="0 0 12 12" fill="none" xmlns="http://www.w3.org/2000/svg">
<path fill-rule="evenodd" clip-rule="evenodd" d="M7.02103 0H8.74632C10.5412 0 11.9963 1.45507 11.9963 3.25V5.18774C11.9963 5.86655 11.7203 6.51617 11.2317 6.98735L6.7635 11.2959C5.78236 12.242 4.22418 12.2279 3.2604 11.2641L0.732234 8.73592C-0.23155 7.77214 -0.245715 6.21396 0.700389 5.23281L4.86149 0.917592C5.42691 0.331232 6.20646 0 7.02103 0ZM8.99632 4C9.5486 4 9.99632 3.55228 9.99632 3C9.99632 2.44772 9.5486 2 8.99632 2C8.44403 2 7.99632 2.44772 7.99632 3C7.99632 3.55228 8.44403 4 8.99632 4Z" fill="#4A4A4A"/>
</svg>
