<svg width="16" height="16" viewBox="0 0 16 16" fill="none" xmlns="http://www.w3.org/2000/svg">
<path fill-rule="evenodd" clip-rule="evenodd" d="M0.435974 2.18404C0 3.03969 0 4.15979 0 6.4V9.6C0 11.8402 0 12.9603 0.435974 13.816C0.819467 14.5686 1.43139 15.1805 2.18404 15.564C3.03969 16 4.15979 16 6.4 16H9.6C11.8402 16 12.9603 16 13.816 15.564C14.5686 15.1805 15.1805 14.5686 15.564 13.816C16 12.9603 16 11.8402 16 9.6V6.4C16 4.15979 16 3.03969 15.564 2.18404C15.1805 1.43139 14.5686 0.819467 13.816 0.435974C12.9603 0 11.8402 0 9.6 0H6.4C4.15979 0 3.03969 0 2.18404 0.435974C1.43139 0.819467 0.819467 1.43139 0.435974 2.18404ZM6.85326 3C5.5905 3 4.40514 3.38782 3.58242 3.94335L4.69363 5.77816C5.33663 5.37378 6.08818 5.16128 6.85488 5.16708C8.80559 5.16708 10.2399 6.49982 10.2399 8.25916C10.2399 9.75908 9.09245 10.8707 7.63863 10.8707C6.45327 10.8707 5.63055 10.2025 5.63055 9.2591C5.63055 8.68524 5.89739 8.22195 6.60482 7.9075L5.55315 6.18537C4.25413 6.61092 3.33398 7.70363 3.33398 9.18521C3.33398 11.3706 5.13151 13 7.637 13C10.5636 13 12.6675 11.0368 12.6675 8.22247C12.6675 5.20376 10.2194 3 6.85326 3Z" fill="#4A4A4A"/>
</svg>
