<svg width="16" height="16" viewBox="0 0 16 16" fill="none" xmlns="http://www.w3.org/2000/svg">
<path d="M12 0C14.2091 0 16 1.79086 16 4V12C16 14.2091 14.2091 16 12 16H4C1.79086 16 0 14.2091 0 12V4C0 1.79086 1.79086 0 4 0H12ZM4.4707 2C3.82518 2.00002 3.2521 2.41305 3.04785 3.02539L2.25 5.41895V6.75C2.25 7.4163 2.53978 8.01477 3 8.42676V12.5C3 13.3284 3.67157 14 4.5 14H11.5C12.3284 14 13 13.3284 13 12.5V8.42676C13.4602 8.01477 13.75 7.4163 13.75 6.75V5.41895L12.9521 3.02539C12.7479 2.41305 12.1748 2.00002 11.5293 2H4.4707ZM9.75 8.16406C10.1625 8.67381 10.7932 9 11.5 9C11.6718 9 11.8392 8.98082 12 8.94434V12.5C12 12.7761 11.7761 13 11.5 13H9.5V11C9.5 10.4477 9.05228 10 8.5 10H7.5C6.94772 10 6.5 10.4477 6.5 11V13H4.5C4.22386 13 4 12.7761 4 12.5V8.94434C4.1608 8.98082 4.32816 9 4.5 9C5.20682 9 5.83751 8.67381 6.25 8.16406C6.66249 8.67381 7.29318 9 8 9C8.70682 9 9.33751 8.67381 9.75 8.16406ZM5.75 6V6.75C5.75 7.44036 5.19036 8 4.5 8C3.80964 8 3.25 7.44036 3.25 6.75V6H5.75ZM9.25 6V6.75C9.25 7.44036 8.69036 8 8 8C7.30964 8 6.75 7.44036 6.75 6.75V6H9.25ZM12.75 6V6.75C12.75 7.44036 12.1904 8 11.5 8C10.8096 8 10.25 7.44036 10.25 6.75V6H12.75ZM11.5293 3C11.7445 3.00002 11.9359 3.13764 12.0039 3.3418L12.5566 5H3.44336L3.99609 3.3418C4.06415 3.13764 4.25551 3.00002 4.4707 3H11.5293Z" fill="#4A4A4A"/>
</svg>
