<svg width="20" height="16" viewBox="0 0 20 16" fill="none" xmlns="http://www.w3.org/2000/svg">
<path d="M19.3658 8.73055C19.3967 9.46894 19.1334 10.1894 18.6338 10.734C18.1341 11.2785 17.4389 11.6027 16.7006 11.6352C16.6574 11.6372 16.6143 11.6382 16.5713 11.6382C16.3751 11.6381 16.1795 11.6169 15.9879 11.5749C15.4193 12.4528 14.6737 13.2024 13.7988 13.7757C12.9239 14.349 11.939 14.7333 10.9071 14.9042C10.7851 15.2628 10.5416 15.5674 10.2187 15.7655C9.89586 15.9636 9.51395 16.0427 9.13899 15.989C8.76404 15.9354 8.4196 15.7524 8.16523 15.4718C7.91086 15.1911 7.76253 14.8304 7.7459 14.452C7.72926 14.0736 7.84536 13.7013 8.07413 13.3994C8.30289 13.0975 8.62994 12.885 8.99874 12.7987C9.36755 12.7124 9.75492 12.7576 10.0939 12.9266C10.4329 13.0956 10.7022 13.3777 10.8552 13.7242C12.308 13.4555 13.6205 12.6855 14.5639 11.5485C15.5072 10.4114 16.0217 8.97938 16.0175 7.50195C16.0175 4.01152 13.1779 1.17188 9.68747 1.17188C6.19704 1.17188 3.35739 4.01152 3.35739 7.50195C3.3572 8.58125 3.63304 9.64267 4.15868 10.5853C4.1765 10.6164 4.18987 10.6499 4.19841 10.6847C4.24918 10.8258 4.24375 10.981 4.18325 11.1183C4.12275 11.2555 4.0118 11.3642 3.87337 11.4219C3.5344 11.5646 3.17035 11.638 2.80259 11.638C2.75931 11.638 2.71593 11.637 2.67247 11.635C1.93446 11.602 1.23964 11.2777 0.740378 10.7332C0.241116 10.1886 -0.0218473 9.46837 0.00914967 8.73027C0.0216106 8.43594 0.0146575 8.17332 0.00786061 7.91937C0.00153248 7.68027 -0.00506906 7.43301 0.00579031 7.175C0.0381995 6.45432 0.34821 5.77413 0.87089 5.2769C1.39357 4.77967 2.08837 4.50397 2.80977 4.50754C3.96821 1.85707 6.61481 0 9.68747 0C12.7601 0 15.4068 1.85707 16.5652 4.50758C17.2867 4.50347 17.9817 4.77893 18.5045 5.27617C19.0272 5.77341 19.3371 6.4538 19.3691 7.17457C19.38 7.43297 19.3734 7.68019 19.367 7.9193C19.3603 8.17328 19.3533 8.43602 19.3658 8.73055ZM14.6017 7.50195C14.6014 8.25482 14.4282 8.99757 14.0955 9.67291C13.7627 10.3483 13.2793 10.9382 12.6825 11.3971C12.0857 11.8561 11.3915 12.1718 10.6534 12.3201C9.91523 12.4683 9.15291 12.445 8.42521 12.252L6.4361 13.4007C6.33574 13.4586 6.22044 13.4855 6.10479 13.4779C5.98914 13.4704 5.87834 13.4287 5.78639 13.3581C5.69444 13.2876 5.62548 13.1913 5.58823 13.0816C5.55098 12.9718 5.54711 12.8535 5.57712 12.7416L6.08548 10.8452C5.24361 9.93519 4.77518 8.74162 4.77341 7.50195C4.77341 4.79148 6.97774 2.58656 9.68747 2.58656C12.3972 2.58656 14.6017 4.79148 14.6017 7.50195ZM8.32126 7.50195C8.32126 7.34655 8.25953 7.19752 8.14964 7.08763C8.03976 6.97775 7.89072 6.91602 7.73532 6.91602H7.73435C7.6185 6.91623 7.50533 6.95078 7.40911 7.0153C7.3129 7.07981 7.23797 7.1714 7.19379 7.27848C7.14961 7.38557 7.13816 7.50334 7.16089 7.61693C7.18363 7.73052 7.23952 7.83482 7.32151 7.91666C7.40349 7.99849 7.5079 8.05419 7.62153 8.07671C7.73516 8.09923 7.85292 8.08756 7.95992 8.04318C8.06692 7.9988 8.15837 7.9237 8.2227 7.82737C8.28704 7.73104 8.32138 7.61779 8.32138 7.50195H8.32126ZM10.2735 7.50195C10.2735 7.48277 10.2724 7.4636 10.2704 7.44453C10.2686 7.42538 10.2657 7.40635 10.2618 7.3875C10.2583 7.36873 10.2536 7.3502 10.2477 7.33203C10.2423 7.31367 10.2357 7.2957 10.2286 7.27773C10.2216 7.25977 10.213 7.24297 10.204 7.22617C10.1951 7.20928 10.1853 7.19285 10.1747 7.17695C10.1641 7.16089 10.1526 7.14537 10.1403 7.13047C10.1283 7.11554 10.1154 7.10132 10.1017 7.08789C10.0884 7.07422 10.074 7.06133 10.0591 7.04883C10.0442 7.03711 10.0286 7.02539 10.0126 7.01484C9.9967 7.00425 9.98029 6.99447 9.96341 6.98555C9.94657 6.97656 9.92903 6.96836 9.91142 6.96094C9.89383 6.95357 9.87584 6.94718 9.85755 6.9418C9.82101 6.93006 9.78328 6.92246 9.74505 6.91914C9.68766 6.91361 9.62978 6.91638 9.57317 6.92734C9.55433 6.93119 9.5357 6.93602 9.51735 6.9418C9.49904 6.94717 9.48105 6.95356 9.46345 6.96094C9.44587 6.96836 9.42829 6.97656 9.41149 6.98555C9.3947 6.99453 9.37829 7.0043 9.36224 7.01484C9.34618 7.02539 9.3306 7.03711 9.31618 7.04883C9.30095 7.06133 9.28688 7.07422 9.27321 7.08789C9.2595 7.10133 9.24658 7.11555 9.2345 7.13047C9.22241 7.14538 9.21108 7.16089 9.20056 7.17695C9.18982 7.19284 9.17991 7.20927 9.17087 7.22617C9.16185 7.24291 9.15376 7.26012 9.14661 7.27773C9.1392 7.29549 9.13268 7.31362 9.12708 7.33203C9.12165 7.35 9.11696 7.36875 9.11306 7.3875C9.1092 7.40635 9.10632 7.42538 9.10442 7.44453C9.10251 7.46367 9.10169 7.48281 9.10169 7.50195C9.10169 7.52109 9.10251 7.54063 9.10442 7.55977C9.10635 7.57878 9.10923 7.59768 9.11306 7.61641C9.11696 7.63516 9.12165 7.65391 9.12708 7.67227C9.13268 7.69055 9.1392 7.70854 9.14661 7.72617C9.15376 7.74391 9.16185 7.76126 9.17087 7.77812C9.17981 7.79492 9.19001 7.81133 9.20056 7.82734C9.21108 7.84328 9.22241 7.85866 9.2345 7.87344C9.24667 7.8884 9.25959 7.90274 9.27321 7.91641C9.28688 7.92969 9.30095 7.94297 9.31618 7.95508C9.33087 7.96728 9.34625 7.97862 9.36224 7.98906C9.37829 7.99961 9.39466 8.00977 9.41149 8.01875C9.44542 8.03643 9.48084 8.05107 9.51735 8.0625C9.53567 8.06797 9.55442 8.07266 9.57317 8.07656C9.61083 8.08427 9.64919 8.08806 9.68763 8.08789C9.84284 8.08748 9.99163 8.02586 10.1017 7.91641C10.1287 7.889 10.1531 7.85919 10.1747 7.82734C10.1853 7.81133 10.195 7.79492 10.204 7.77812C10.213 7.76133 10.2212 7.74375 10.2286 7.72617C10.2361 7.70859 10.2423 7.69023 10.2477 7.67227C10.2536 7.65395 10.2583 7.6353 10.2618 7.61641C10.2657 7.59769 10.2685 7.57878 10.2704 7.55977C10.2724 7.54053 10.2734 7.52121 10.2734 7.50187L10.2735 7.50195ZM12.2266 7.50195C12.2266 7.34655 12.1649 7.19752 12.055 7.08763C11.9451 6.97775 11.7961 6.91602 11.6407 6.91602H11.6396C11.5237 6.91624 11.4106 6.95079 11.3144 7.01531C11.2182 7.07983 11.1432 7.17142 11.0991 7.27851C11.0549 7.38559 11.0434 7.50337 11.0662 7.61696C11.0889 7.73054 11.1448 7.83484 11.2268 7.91667C11.3088 7.9985 11.4132 8.0542 11.5268 8.07671C11.6404 8.09923 11.7582 8.08756 11.8652 8.04318C11.9722 7.9988 12.0636 7.9237 12.128 7.82736C12.1923 7.73103 12.2266 7.61779 12.2266 7.50195Z" fill="white"/>
</svg>
