<svg width="17" height="17" viewBox="0 0 17 17" fill="none" xmlns="http://www.w3.org/2000/svg">
<path fill-rule="evenodd" clip-rule="evenodd" d="M13.125 6.875H11.875C10.8394 6.875 10 7.71438 10 8.75V16.25H14.375C15.4106 16.25 16.25 15.4106 16.25 14.375C16.25 12.8475 16.25 10.2775 16.25 8.75C16.25 7.71438 15.4106 6.875 14.375 6.875V0.625C14.375 0.28 14.095 0 13.75 0H9.45812C9.19125 0 8.95125 0.160625 8.84875 0.406875C8.74688 0.65375 8.80312 0.936875 8.99187 1.12563L10.3663 2.5L8.99187 3.87438C8.80312 4.06313 8.74688 4.34625 8.84875 4.59312C8.95125 4.83938 9.19125 5 9.45812 5H13.125V6.875ZM8.75 8.75H6.875C6.3775 8.75 5.90062 8.9475 5.54937 9.29937C5.1975 9.65063 5 10.1275 5 10.625V16.25H8.75V8.75ZM3.75 10.625H1.875C0.839375 10.625 0 11.4644 0 12.5V14.375C0 15.4106 0.839375 16.25 1.875 16.25H3.75V10.625Z" fill="white"/>
</svg>
