<svg width="318" height="160" viewBox="0 0 318 160" fill="none" xmlns="http://www.w3.org/2000/svg">
<path opacity="0.9" d="M317.999 133.043H-0.000976562V162.535H317.999V133.043Z" fill="url(#paint0_linear_2_11663)"/>
<path d="M151.707 46.5033H149.302C148.876 44.6304 148.16 42.871 147.202 41.2676L148.968 39.5011C149.593 38.8768 149.593 37.8623 148.968 37.238L145.095 33.3645C144.471 32.7402 143.456 32.7402 142.832 33.3645L141.129 35.0672C139.547 34.074 137.802 33.3149 135.943 32.8466V30.3494C135.943 29.4626 135.227 28.7461 134.34 28.7461H128.863C127.976 28.7461 127.26 29.4626 127.26 30.3494V32.7544C125.387 33.1801 123.627 33.8966 122.017 34.8472L120.25 33.0807C119.626 32.4564 118.612 32.4564 117.987 33.0807L114.114 36.9543C113.489 37.5786 113.489 38.5931 114.114 39.2174L115.816 40.92C114.816 42.5021 114.064 44.2473 113.596 46.106H111.092C110.205 46.106 109.488 46.8225 109.488 47.7093V53.1862C109.488 54.073 110.205 54.7895 111.092 54.7895H113.504C113.922 56.6624 114.639 58.4218 115.597 60.0251L113.823 61.7987C113.199 62.423 113.199 63.4375 113.823 64.0618L117.696 67.9353C118.321 68.5596 119.335 68.5596 119.96 67.9353L121.662 66.2327C123.244 67.2259 124.989 67.985 126.848 68.4532V70.9504C126.848 71.8372 127.565 72.5538 128.452 72.5538H133.928C134.815 72.5538 135.532 71.8372 135.532 70.9504V68.5454C137.405 68.1198 139.164 67.4033 140.767 66.4526L142.534 68.2191C143.158 68.8434 144.173 68.8434 144.797 68.2191L148.67 64.3456C149.295 63.7213 149.295 62.7068 148.67 62.0825L146.968 60.3798C147.968 58.7978 148.727 57.0526 149.195 55.1939H151.686C152.572 55.1939 153.289 54.4773 153.289 53.5905V48.1137C153.289 47.2269 152.572 46.5104 151.686 46.5104L151.707 46.5033ZM131.396 60.8339C125.77 60.8339 121.201 56.2722 121.201 50.6393C121.201 45.0064 126.146 40.0829 132.077 40.466C137.149 40.7994 141.271 44.9354 141.576 50.015C141.931 55.9317 137.234 60.8339 131.396 60.8339Z" fill="#E6E6E6"/>
<path d="M164.438 68.2402C152.016 68.734 129.885 132.415 138.534 133.647C150.185 141.725 184.539 71.4581 164.438 68.2402Z" fill="#E8A398"/>
<path d="M165.425 65.709L165.314 81.3546L165.081 112.224C165.081 112.224 164.831 112.618 164.399 113.334C164.288 113.506 164.177 113.705 164.038 113.916C163.644 114.549 163.15 115.348 162.579 116.291L155.583 111.581L142.273 102.62C145.685 93.8322 149.208 85.3437 151.705 80.711C158.329 68.3776 165.425 65.709 165.425 65.709Z" fill="#29845A"/>
<path d="M165.311 81.3482L165.078 112.218C165.078 112.218 164.828 112.612 164.395 113.327C164.284 113.499 164.173 113.688 164.035 113.91C163.641 114.542 163.147 115.341 162.575 116.284L155.579 111.574C155.829 102.875 155.69 99.0077 155.579 92.2446C155.457 85.0876 157.793 75.8223 157.793 75.8223C157.793 75.8223 161.577 78.5908 165.305 81.3482H165.311Z" fill="#C3D3EA"/>
<path d="M196.574 67.8084L186.393 75.4481L179.13 68.9735V59.2089L193.65 47.8242L193.905 49.5663L194.665 54.7593L196.574 67.8084Z" fill="#E8A398"/>
<g opacity="0.5" style="mix-blend-mode:multiply">
<path d="M194.11 51.3523C190.132 59.2472 180.933 63.1309 179.13 63.6801V61.6329L192.662 49.6324C192.662 49.6324 193.195 49.5658 193.899 49.5547L194.105 51.3467L194.11 51.3523Z" fill="#E8A398"/>
</g>
<path d="M194.901 49.8685C194.901 49.8685 192.21 55.8659 185.952 58.9174C183.017 60.3488 179.688 62.2906 176.293 61.6249C173.297 61.0368 171.716 58.0574 170.434 55.583C169.186 53.1751 168.614 50.4621 168.609 47.7546C168.609 44.8364 168.759 42.0068 168.132 39.1385C167.632 36.8693 166.911 34.0342 168.265 31.9204C170.024 29.1796 183.727 25.7676 183.727 25.7676L191.794 30.2171L197.897 34.2506L194.896 49.8685H194.901Z" fill="#E8A398"/>
<path d="M183.417 16.0966C183.417 16.0966 180.693 15.5806 178.901 17.589C177.186 19.5142 182.346 19.1868 182.407 19.1036C182.468 19.0204 183.417 16.0966 183.417 16.0966Z" fill="white"/>
<path d="M176.436 32.3412C176.436 32.3412 176.852 34.566 179.177 35.548C179.177 35.548 174.96 36.2471 172.746 36.2859C172.746 36.2859 168.935 36.5855 167.182 34.566C167.182 34.566 167.803 38.028 167.803 38.0336C167.77 37.8394 167.298 37.4677 167.171 37.3123C166.666 36.6854 166.216 36.0141 165.834 35.3039C163.986 31.8807 164.186 26.8209 165.517 23.2424C168.197 16.0243 178.139 16.3405 184.181 17.8885C187.898 18.8372 191.732 20.141 194.722 22.6321C202.662 29.2398 199.594 43.8313 194.268 51.1381C194.268 51.1381 193.607 44.4471 193.507 42.3777C193.402 40.3083 191.543 39.7923 191.593 40.7743C191.643 41.7563 191.488 46.5887 190.45 46.5332C189.413 46.4777 189.013 38.0336 186.533 36.2748C184.053 34.5161 178.455 33.9946 176.442 32.3412H176.436Z" fill="#262A41"/>
<path d="M227.478 137.327H159.647C157.933 116.172 155.647 83.2328 157.511 76.4031C159.653 68.547 163.852 65.3458 170.277 63.9698C172.213 63.5593 176.796 63.0711 179.149 62.9102C181.124 73.6956 195.981 63.1265 195.981 63.1265C195.981 63.1265 199.538 63.4816 202.112 63.6425C208.132 64.0142 218.479 65.9727 220.554 74.894C221.558 79.2104 222.745 90.4675 224.01 103.2C224.715 110.391 225.447 118.064 226.18 125.221C226.618 129.509 227.045 133.615 227.478 137.327Z" fill="#29845A"/>
<path d="M179.116 61.8477L182.112 67.2404L178.972 69.7148L176.525 63.0516" fill="white"/>
<path d="M182.109 67.2375L195.53 60.1914L198.209 63.5203L184.067 71.0657L182.109 67.2375Z" fill="white"/>
<path d="M207.818 87.9688C207.818 87.9688 217.116 113.995 218.159 117.135C219.208 120.275 218.626 122.833 213.971 124.814C209.316 126.789 221.3 130.395 221.533 129.701C221.766 129.002 237.234 115.509 236.307 114.699C235.381 113.889 207.818 87.9743 207.818 87.9743V87.9688Z" fill="#C3D3EA"/>
<path d="M211.964 70.8208C203.681 80.0916 234.056 140.277 240.953 134.923C254.862 132.166 228.253 58.615 211.964 70.8208Z" fill="#E8A398"/>
<path d="M239.083 101.553C239.083 101.553 249.086 126.674 244.781 132.261C240.475 137.843 199.209 141.033 199.209 141.033L197.439 129.704C197.439 129.704 226.111 122.669 226.2 122.23C226.289 121.792 219.221 109.409 219.221 109.409L239.083 101.558V101.553Z" fill="#E8A398"/>
<path d="M245.632 129.419C245.605 131.405 244.379 133.202 242.659 134.196C229.193 141.946 169.596 142.923 171.266 138.734C171.177 135.533 245.832 114.472 245.632 129.419Z" fill="#E8A398"/>
<path d="M218.786 110.978V110.967C214.547 103.244 209.221 93.0079 207.811 87.9813C207.811 87.9813 198.507 68.8515 205.426 65.7002C206.352 65.2785 208.305 64.6017 209.259 64.8347C216.339 66.5546 223.729 71.6699 228.711 78.8713C232.034 83.6649 236.462 92.453 240.129 101.646C240.129 101.646 240.14 101.657 240.14 101.668L218.786 110.973V110.978Z" fill="#29845A"/>
<path d="M176.935 137.209H129.133V134.23H173.961C175.603 134.23 176.94 135.567 176.94 137.209H176.935Z" fill="white"/>
<path d="M91.0942 137.204H152.434L146.553 99.499C146.381 98.406 145.443 97.6016 144.334 97.6016H87.5323C86.1564 97.6016 85.1022 98.8332 85.3131 100.193L91.0886 137.209L91.0942 137.204Z" fill="white"/>
<path d="M122.163 120.001H110.669C109.081 120.001 107.796 118.715 107.796 117.127C107.796 115.539 109.081 114.254 110.669 114.254H122.163C123.751 114.254 125.036 115.539 125.036 117.127C125.036 118.715 123.751 120.001 122.163 120.001Z" fill="#C3DCFF"/>
<path d="M155.175 143.511C155.275 143.212 160.035 133.591 165.389 132.698C170.743 131.805 178.083 134.484 179.076 134.484C180.069 134.484 182.349 134.285 182.349 134.285L183.936 140.632C183.936 140.632 179.72 140.582 179.126 141.275C178.532 141.969 178.283 142.962 176.052 142.962C173.822 142.962 171.542 140.881 168.812 140.881C166.082 140.881 164.102 144.055 161.672 144.055C159.242 144.055 155.175 143.511 155.175 143.511Z" fill="#E8A398"/>
<path d="M192.352 37.9699L189.85 37.8866C190.033 32.4107 189.439 19.9053 182.926 17.5751L183.42 16.0938C193.251 18.7568 192.385 37.0933 192.352 37.9754V37.9699Z" fill="white"/>
<path d="M191.71 47.2109C191.71 47.2109 186.511 55.1281 175.692 56.3209" stroke="#262A41" stroke-width="0.654674" stroke-miterlimit="10"/>
<path d="M174.948 57.9063C176.189 57.9063 177.195 57.2207 177.195 56.375C177.195 55.5293 176.189 54.8438 174.948 54.8438C173.707 54.8438 172.701 55.5293 172.701 56.375C172.701 57.2207 173.707 57.9063 174.948 57.9063Z" fill="#262A41"/>
<path d="M190.889 49.3291C194.063 49.3291 196.637 46.5197 196.637 43.0542C196.637 39.5887 194.063 36.7793 190.889 36.7793C187.714 36.7793 185.141 39.5887 185.141 43.0542C185.141 46.5197 187.714 49.3291 190.889 49.3291Z" fill="white"/>
<path d="M192.362 49.3291C195.537 49.3291 198.11 46.5197 198.11 43.0542C198.11 39.5887 195.537 36.7793 192.362 36.7793C189.188 36.7793 186.614 39.5887 186.614 43.0542C186.614 46.5197 189.188 49.3291 192.362 49.3291Z" fill="#E6E6E6"/>
<path d="M193.754 47.3931C195.829 47.3931 197.51 45.4705 197.51 43.0989C197.51 40.7273 195.829 38.8047 193.754 38.8047C191.68 38.8047 189.998 40.7273 189.998 43.0989C189.998 45.4705 191.68 47.3931 193.754 47.3931Z" fill="white"/>
<g clip-path="url(#clip0_2_11663)">
<path d="M74.2725 77.5C81.1464 77.5 86.7188 71.9276 86.7188 65.0537C86.7188 58.1798 81.1464 52.6074 74.2725 52.6074C67.3986 52.6074 61.8262 58.1798 61.8262 65.0537C61.8262 71.9276 67.3986 77.5 74.2725 77.5Z" fill="#29845A"/>
<path d="M83.9445 69.8828C84.0112 70.0846 85.2219 76.3989 85.2219 76.3989L78.7725 74.8531L83.9465 69.8809L83.9445 69.8828Z" fill="#29845A"/>
<path d="M68.5877 60.83C68.5877 60.83 68.5975 60.8222 68.6033 60.8163C68.7875 60.6596 68.954 60.4911 69.1108 60.3246L69.1695 60.2638C69.2636 60.1678 69.3498 60.0758 69.4497 59.9837C69.9022 59.5507 70.4547 59.5546 70.8896 59.9974L72.3688 61.4765C72.5804 61.6744 72.6979 61.9213 72.6979 62.174C72.6979 62.4267 72.5843 62.6696 72.3707 62.8851L71.4519 63.804C71.4225 63.8353 71.3931 63.8686 71.3931 63.9098C71.3931 63.9176 71.3931 63.9352 71.4108 63.9744C71.4147 63.9803 71.4186 63.9862 71.4206 63.992C71.4735 64.0822 71.5244 64.1801 71.5753 64.284C71.6224 64.376 71.6733 64.4818 71.734 64.5759C72.2532 65.3987 72.933 66.1471 73.8127 66.8582C73.8146 66.8602 73.8166 66.8641 73.8185 66.8661C74.3005 67.2422 74.7001 67.4891 75.1115 67.6595H75.1155C75.2075 67.6909 75.2271 67.6909 75.2918 67.6262C75.2918 67.6262 75.2957 67.6223 75.2977 67.6203C75.5053 67.3892 75.713 67.1795 75.9618 66.9366C76.0127 66.8837 76.0656 66.8308 76.1205 66.7779L76.1949 66.7074C76.6455 66.2568 77.1843 66.2568 77.6349 66.7074L78.3637 67.4362C78.4088 67.4812 78.4538 67.5224 78.4969 67.5694C78.54 67.6105 78.5812 67.6497 78.6243 67.6909C78.8104 67.8731 78.9632 68.0239 79.116 68.1865H79.118C79.3237 68.3942 79.4314 68.6352 79.4314 68.8859C79.4314 69.1367 79.3256 69.3738 79.1238 69.5873C79.1199 69.5912 79.118 69.5932 79.114 69.5971L78.1972 70.514C77.9033 70.8059 77.5448 70.9724 77.1294 71.0096C76.5672 71.0566 75.9892 70.9548 75.2624 70.6824C74.1183 70.2593 73.0545 69.6226 71.9123 68.6743C70.539 67.5243 69.4575 66.1432 68.6935 64.5622C68.4094 63.9705 68.0783 63.181 68.0234 62.3052C68.0234 62.2582 68.0215 62.2053 68.0215 62.1564C68.0215 61.6196 68.2056 61.1866 68.5838 60.83H68.5877Z" fill="white"/>
<path d="M73.3911 60.2541C73.6615 60.2032 73.9397 60.1758 74.2237 60.1758C76.751 60.1758 78.8003 62.3034 78.8003 64.9286C78.8003 65.2264 78.7748 65.5144 78.7238 65.7965" stroke="white" stroke-width="0.419252" stroke-miterlimit="10" stroke-linecap="round"/>
<path d="M72.5298 59.3602C73.0646 59.1839 73.6347 59.0898 74.2264 59.0898C77.3316 59.0898 79.8491 61.7053 79.8491 64.93C79.8491 65.5452 79.7589 66.1368 79.5885 66.6932" stroke="white" stroke-width="0.419252" stroke-miterlimit="10" stroke-linecap="round"/>
</g>
<g clip-path="url(#clip1_2_11663)">
<path d="M102.963 0.952739L106.449 13.962C106.449 13.962 106.455 13.9828 106.457 13.9897C106.51 14.2161 106.468 14.4458 106.351 14.6325C106.243 14.8096 106.062 14.9506 105.845 15.0089L84.5035 20.7273C84.2858 20.7856 84.0623 20.7529 83.8768 20.6545C83.6824 20.5511 83.5311 20.3732 83.464 20.1505C83.4613 20.1401 83.4594 20.1332 83.4566 20.1229L79.9708 7.11357C79.8301 6.5885 80.1437 6.04538 80.6687 5.90469L101.751 0.255715C102.276 0.115023 102.819 0.428594 102.96 0.953664L102.963 0.952739Z" fill="#CD9800"/>
<g opacity="0.2" style="mix-blend-mode:screen">
<path d="M102.963 0.952739L103.346 2.37941L94.343 14.8215L80.3549 8.54715L79.9708 7.11357C79.8301 6.5885 80.1437 6.04538 80.6687 5.90469L101.751 0.255715C102.28 0.114097 102.819 0.428594 102.96 0.953664L102.963 0.952739Z" fill="white"/>
</g>
</g>
<g clip-path="url(#clip2_2_11663)">
<path d="M235.972 27.2797C235.88 27.4511 233.777 32.9746 233.777 32.9746L239.863 32.6047L235.976 27.2805L235.972 27.2797Z" fill="#0094D5"/>
<path d="M247.169 36.1479C255.258 37.5742 262.704 33.6874 263.801 27.4664C264.898 21.2454 259.23 15.0461 251.141 13.6197C243.052 12.1934 235.605 16.0802 234.508 22.3012C233.411 28.5222 239.079 34.7216 247.169 36.1479Z" fill="#0094D5"/>
<path d="M255.18 27.8009C256.175 27.9764 257.124 27.3121 257.299 26.3173C257.474 25.3225 256.81 24.3739 255.815 24.1985C254.821 24.0231 253.872 24.6873 253.697 25.6821C253.521 26.6769 254.185 27.6255 255.18 27.8009Z" fill="white"/>
<path d="M248.838 26.6818C249.833 26.8572 250.781 26.193 250.957 25.1982C251.132 24.2034 250.468 23.2547 249.473 23.0793C248.478 22.9039 247.53 23.5682 247.354 24.563C247.179 25.5578 247.843 26.5064 248.838 26.6818Z" fill="white"/>
<path d="M242.492 25.5646C243.487 25.74 244.435 25.0758 244.611 24.081C244.786 23.0862 244.122 22.1375 243.127 21.9621C242.132 21.7867 241.183 22.451 241.008 23.4458C240.833 24.4406 241.497 25.3892 242.492 25.5646Z" fill="white"/>
</g>
<defs>
<linearGradient id="paint0_linear_2_11663" x1="158.999" y1="133.043" x2="158.999" y2="162.535" gradientUnits="userSpaceOnUse">
<stop stop-color="#EDF0F4" stop-opacity="0.25"/>
<stop offset="1" stop-color="#F7F7F7"/>
</linearGradient>
<clipPath id="clip0_2_11663">
<rect width="24.8926" height="24.8926" fill="white" transform="translate(61.8267 52.6074)"/>
</clipPath>
<clipPath id="clip1_2_11663">
<rect width="23.8036" height="15.31" fill="white" transform="translate(79.71 6.16016) rotate(-15)"/>
</clipPath>
<clipPath id="clip2_2_11663">
<rect width="29.741" height="22.88" fill="white" transform="translate(236.495 11.0371) rotate(10)"/>
</clipPath>
</defs>
</svg>
